ply
format ascii 1.0
comment Created by Blender 2.67 (sub 1) - www.blender.org, source file: 'Cup_Made_By_Tyro_Smith.blend'
element vertex 184
property float x
property float y
property float z
property float nx
property float ny
property float nz
element face 261
property list uchar uint vertex_indices
end_header
-0.000000 1.063352 4.315307 0.000000 0.726737 0.686880
0.207450 1.042920 4.315307 0.089419 0.449629 0.888699
0.152580 0.767069 0.003914 0.106571 0.535813 -0.837550
0.000000 0.782097 0.003914 0.000000 0.867000 -0.498276
0.406927 0.982409 4.315307 0.174535 0.421400 0.889889
0.299296 0.722564 0.003914 0.219489 0.529893 -0.819147
0.590767 0.884145 4.315307 0.253151 0.378887 0.890103
0.434510 0.650290 0.003914 0.348979 0.522294 -0.778069
0.751904 0.751904 4.315307 0.322092 0.322092 0.890194
0.553026 0.553026 0.003914 0.485122 0.485122 -0.727531
0.884145 0.590767 4.315307 0.378674 0.253029 0.890255
0.650290 0.434510 0.003914 0.572039 0.382214 -0.725700
0.982410 0.406927 4.315307 0.420698 0.174261 0.890286
0.722564 0.299296 0.003914 0.637043 0.263863 -0.724235
1.042920 0.207450 4.315307 0.446547 0.088809 0.890316
0.767069 0.152580 0.003914 0.677175 0.134678 -0.723350
1.063352 -0.000000 4.315307 0.567644 0.000000 0.823237
0.782097 0.000000 0.003914 0.690634 0.000000 -0.723167
1.042920 -0.207450 4.315307 0.446577 -0.088809 0.890286
0.767070 -0.152580 0.003914 0.676809 -0.134617 -0.723716
0.982410 -0.406927 4.315307 0.420728 -0.174261 0.890255
0.722564 -0.299296 0.003914 0.636372 -0.263588 -0.724906
0.884145 -0.590767 4.315307 0.378704 -0.253029 0.890225
0.650290 -0.434510 0.003914 0.571245 -0.381695 -0.726585
0.751904 -0.751904 4.315307 0.322153 -0.322153 0.890164
0.553026 -0.553026 0.003914 0.484390 -0.484390 -0.728477
0.590767 -0.884146 4.315307 0.253243 -0.379040 0.890042
0.434510 -0.650290 0.003914 0.330668 -0.494888 -0.803552
0.406927 -0.982410 4.315307 0.174749 -0.421888 0.889615
0.299296 -0.722564 0.003914 0.213416 -0.515275 -0.829981
0.207449 -1.042921 4.315307 0.111362 -0.559862 0.821039
0.152579 -0.767070 0.003914 0.133274 -0.670034 -0.730247
-0.000000 -1.063353 4.315307 0.000000 -0.726737 0.686880
-0.000000 -0.782097 0.003914 0.000000 -0.867000 -0.498276
-0.207450 -1.042920 4.315307 -0.089419 -0.449629 0.888699
-0.152580 -0.767069 0.003914 -0.106571 -0.535813 -0.837550
-0.406928 -0.982409 4.315307 -0.174535 -0.421400 0.889889
-0.299296 -0.722564 0.003914 -0.219489 -0.529893 -0.819147
-0.590768 -0.884145 4.315307 -0.253151 -0.378887 0.890103
-0.434510 -0.650290 0.003914 -0.348979 -0.522294 -0.778069
-0.751904 -0.751903 4.315307 -0.322092 -0.322092 0.890194
-0.553027 -0.553026 0.003914 -0.485122 -0.485122 -0.727531
-0.884146 -0.590766 4.315307 -0.378674 -0.253029 0.890255
-0.650290 -0.434510 0.003914 -0.572039 -0.382214 -0.725700
-0.982410 -0.406927 4.315307 -0.420698 -0.174261 0.890286
-0.722564 -0.299295 0.003914 -0.637043 -0.263863 -0.724235
-1.042921 -0.207449 4.315307 -0.446547 -0.088809 0.890316
-0.767070 -0.152579 0.003914 -0.677175 -0.134678 -0.723350
-1.063352 0.000001 4.315307 -0.567644 0.000000 0.823237
-0.782097 0.000001 0.003914 -0.690634 0.000000 -0.723167
-1.042920 0.207451 4.315307 -0.446577 0.088809 0.890286
-0.767069 0.152580 0.003914 -0.676809 0.134617 -0.723716
-0.982409 0.406928 4.315307 -0.420728 0.174261 0.890255
-0.722563 0.299296 0.003914 -0.636372 0.263588 -0.724906
-0.884145 0.590768 4.315307 -0.378704 0.253029 0.890225
-0.650290 0.434511 0.003914 -0.571245 0.381695 -0.726585
-0.751903 0.751905 4.315307 -0.322153 0.322153 0.890164
-0.553026 0.553027 0.003914 -0.484390 0.484390 -0.728477
-0.590766 0.884146 4.315307 -0.253243 0.379040 0.890042
-0.434509 0.650291 0.003914 -0.330668 0.494888 -0.803552
-0.406926 0.982410 4.315307 -0.174749 0.421888 0.889615
-0.299295 0.722564 0.003914 -0.213416 0.515275 -0.829981
-0.000000 1.045537 4.315307 0.000000 -0.681875 0.731437
0.026566 1.042920 4.315307 -0.067019 -0.680715 0.729453
-0.207448 1.042920 4.315307 -0.111362 0.559862 0.821039
-0.026565 1.042920 4.315307 0.067049 -0.680990 0.729179
-0.316484 0.991318 4.315307 0.126286 -0.416333 0.900388
-0.203973 1.025447 4.315307 0.132145 -0.666189 0.733970
0.117008 1.034013 4.315307 -0.042787 -0.434706 0.899533
-0.345849 0.982410 4.315307 0.198523 -0.654439 0.729576
0.203974 1.025447 4.315307 -0.131901 -0.665914 0.734245
0.345850 0.982409 4.315307 -0.126194 -0.416059 0.900510
-0.544659 0.888687 4.315307 0.322123 -0.602649 0.730094
-0.400108 0.965951 4.315307 0.260659 -0.629505 0.731925
0.360820 0.977868 4.315307 -0.198523 -0.654439 0.729576
-0.553155 0.884146 4.315307 0.205176 -0.383862 0.900266
0.553156 0.884145 4.315307 -0.320780 -0.600177 0.732688
0.400110 0.965950 4.315307 -0.260659 -0.629536 0.731895
-0.720144 0.755033 4.315307 0.431593 -0.525925 0.732841
-0.580868 0.869333 4.315307 0.378491 -0.566607 0.731895
0.559008 0.881017 4.315307 -0.322367 -0.603107 0.729576
-0.723955 0.751905 4.315307 0.433821 -0.528611 0.729606
0.723956 0.751904 4.315307 -0.431532 -0.525834 0.732963
0.580869 0.869332 4.315307 -0.378491 -0.566607 0.731895
-0.859192 0.593226 4.315307 0.336192 -0.275887 0.900449
-0.739305 0.739307 4.315307 0.481735 -0.481887 0.731895
0.726951 0.749446 4.315307 -0.433821 -0.528611 0.729606
-0.861209 0.590768 4.315307 0.528733 -0.433912 0.729453
0.861209 0.590767 4.315307 -0.525681 -0.431440 0.733116
0.739306 0.739306 4.315307 -0.481735 -0.481887 0.731895
-0.961189 0.409018 4.315307 0.599719 -0.320536 0.733177
-0.869332 0.580870 4.315307 0.566485 -0.378643 0.731895
0.862925 0.588677 4.315307 -0.336344 -0.276040 0.900357
-0.962306 0.406928 4.315307 0.603168 -0.322367 0.729545
0.962306 0.406927 4.315307 -0.383648 -0.205054 0.900418
0.869332 0.580869 4.315307 -0.566363 -0.378521 0.732047
-1.023822 0.209332 4.315307 0.650624 -0.197363 0.733268
-0.965950 0.400111 4.315307 0.629475 -0.260842 0.731895
0.963311 0.405046 4.315307 -0.603107 -0.322367 0.729576
-1.024393 0.207451 4.315307 0.654378 -0.198492 0.729606
1.024393 0.207450 4.315307 -0.650594 -0.197333 0.733299
0.965950 0.400110 4.315307 -0.629475 -0.260842 0.731895
-1.045362 0.001773 4.315307 0.676565 -0.066622 0.733329
-1.025447 0.203975 4.315307 0.668264 -0.133030 0.731895
1.024930 0.205678 4.315307 -0.654378 -0.198462 0.729637
-1.045537 0.000001 4.315307 0.681387 -0.000092 0.731895
1.045537 0.000000 4.315307 -0.681387 0.000092 0.731895
1.025447 0.203974 4.315307 -0.668294 -0.133030 0.731895
-1.025448 -0.203973 4.315307 0.668294 0.133030 0.731895
-1.024931 -0.205677 4.315307 0.654378 0.198462 0.729637
1.045362 -0.001772 4.315307 -0.676565 0.066622 0.733329
-1.024393 -0.207449 4.315307 0.650594 0.197333 0.733299
1.025447 -0.203974 4.315307 -0.668294 0.133030 0.731895
1.024393 -0.207450 4.315307 -0.654378 0.198523 0.729606
-0.965951 -0.400109 4.315307 0.629475 0.260842 0.731895
-0.963312 -0.405046 4.315307 0.603107 0.322367 0.729576
1.023822 -0.209331 4.315307 -0.650624 0.197363 0.733268
-0.962306 -0.406927 4.315307 0.599658 0.320536 0.733207
0.965950 -0.400110 4.315307 -0.629475 0.260842 0.731895
0.962306 -0.406927 4.315307 -0.603168 0.322367 0.729545
-0.869333 -0.580869 4.315307 0.566485 0.378643 0.731895
-0.862925 -0.588676 4.315307 0.528703 0.433882 0.729514
0.961189 -0.409017 4.315307 -0.599719 0.320536 0.733177
-0.861210 -0.590766 4.315307 0.336222 0.275918 0.900449
0.869332 -0.580869 4.315307 -0.566332 0.378491 0.732078
0.861209 -0.590767 4.315307 -0.336375 0.276040 0.900327
-0.739307 -0.739306 4.315307 0.481735 0.481887 0.731895
-0.726951 -0.749446 4.315307 0.433821 0.528611 0.729606
0.859192 -0.593225 4.315307 -0.525742 0.431471 0.733055
-0.723957 -0.751903 4.315307 0.431532 0.525834 0.732963
0.739306 -0.739306 4.315307 -0.481735 0.481887 0.731895
0.723956 -0.751904 4.315307 -0.433821 0.528611 0.729606
-0.580870 -0.869332 4.315307 0.378491 0.566607 0.731895
-0.559009 -0.881017 4.315307 0.322367 0.603107 0.729576
0.720145 -0.755032 4.315307 -0.431623 0.525925 0.732841
-0.553157 -0.884145 4.315307 0.320780 0.600177 0.732688
0.580869 -0.869333 4.315307 -0.378491 0.566607 0.731895
0.553156 -0.884146 4.315307 -0.322367 0.603107 0.729576
-0.400110 -0.965950 4.315307 0.260659 0.629536 0.731895
-0.360821 -0.977868 4.315307 0.126377 0.416639 0.900235
0.544660 -0.888687 4.315307 -0.204932 0.383404 0.900540
-0.345851 -0.982409 4.315307 0.198370 0.653951 0.730033
0.400109 -0.965951 4.315307 -0.259133 0.627186 0.734458
0.345850 -0.982410 4.315307 -0.126469 0.416913 0.900082
-0.203975 -1.025447 4.315307 0.132878 0.668233 0.731956
-0.117008 -1.034013 4.315307 0.067019 0.680502 0.729637
0.316485 -0.991318 4.315307 -0.198401 0.654103 0.729881
-0.026566 -1.042921 4.315307 0.042817 0.434797 0.899472
0.203974 -1.025448 4.315307 -0.132908 0.668020 0.732139
0.026566 -1.042921 4.315307 -0.043031 0.437025 0.898404
-0.000000 -1.045537 4.315307 0.000000 0.680990 0.732261
-0.152578 0.767070 0.003914 -0.133274 0.670034 -0.730247
0.150266 0.755440 0.095241 -0.106357 -0.532334 0.839808
0.000000 0.770240 0.095241 0.000000 -0.867061 0.498154
0.294758 0.711609 0.095241 -0.216498 -0.522446 0.824702
0.427922 0.640431 0.095241 -0.343883 -0.515549 0.784783
0.544642 0.544642 0.095241 -0.482009 -0.482894 0.731040
0.640431 0.427922 0.095241 -0.568804 -0.380840 0.728965
0.711609 0.294758 0.095241 -0.633473 -0.263100 0.727622
0.755440 0.150266 0.095241 -0.676931 -0.134648 0.723594
0.770240 0.000000 0.095241 -0.690390 0.000000 0.723411
0.755440 -0.150266 0.095241 -0.673177 0.134556 0.727103
0.711609 -0.294758 0.095241 -0.632893 0.262856 0.728233
0.640431 -0.427922 0.095241 -0.568072 0.380352 0.729789
0.544642 -0.544642 0.095241 -0.481277 0.482131 0.732017
0.427922 -0.640431 0.095241 -0.325663 0.487259 0.810236
0.294758 -0.711609 0.095241 -0.212775 0.513138 0.831507
0.150266 -0.755440 0.095241 -0.133244 0.666555 0.733421
-0.000000 -0.770240 0.095241 0.000000 0.867061 0.498154
-0.150267 -0.755440 0.095241 0.106326 0.531846 0.840114
-0.294758 -0.711608 0.095241 0.217139 0.525040 0.822871
-0.427923 -0.640431 0.095241 0.343883 0.515549 0.784783
-0.544642 -0.544641 0.095241 0.482162 0.482986 0.730888
-0.640431 -0.427922 0.095241 0.568804 0.380840 0.728965
-0.711609 -0.294757 0.095241 0.633473 0.263100 0.727622
-0.755440 -0.150266 0.095241 0.676931 0.134648 0.723594
-0.770240 0.000001 0.095241 0.690390 0.000000 0.723411
-0.755439 0.150267 0.095241 0.673177 -0.134556 0.727103
-0.711608 0.294759 0.095241 0.632893 -0.262856 0.728233
-0.640430 0.427923 0.095241 0.568072 -0.380352 0.729789
-0.544641 0.544642 0.095241 0.481460 -0.482253 0.731834
-0.427921 0.640431 0.095241 0.326914 -0.489944 0.808100
-0.294757 0.711609 0.095241 0.212256 -0.511093 0.832881
-0.150265 0.755440 0.095241 0.133244 -0.666982 0.733024
4 0 1 2 3
4 1 4 5 2
4 4 6 7 5
4 6 8 9 7
4 9 8 10 11
4 11 10 12 13
4 13 12 14 15
4 15 14 16 17
4 16 18 19 17
4 18 20 21 19
4 20 22 23 21
4 22 24 25 23
4 25 24 26 27
4 27 26 28 29
4 29 28 30 31
4 31 30 32 33
4 32 34 35 33
4 34 36 37 35
4 36 38 39 37
4 38 40 41 39
4 41 40 42 43
4 43 42 44 45
4 45 44 46 47
4 47 46 48 49
4 48 50 51 49
4 50 52 53 51
4 52 54 55 53
4 54 56 57 55
4 57 56 58 59
4 59 58 60 61
4 0 62 63 1
4 0 64 65 62
4 64 60 66 67
3 67 65 64
3 1 63 68
3 66 60 69
4 1 70 71 4
3 1 68 70
4 60 58 72 73
3 73 69 60
3 74 4 71
3 58 75 72
4 76 6 4 77
3 4 74 77
4 58 56 78 79
3 79 75 58
3 80 6 76
3 56 81 78
4 82 8 6 83
3 6 80 83
4 56 54 84 85
3 85 81 56
3 86 8 82
3 54 87 84
4 88 10 8 89
3 8 86 89
4 54 52 90 91
3 91 87 54
3 92 10 88
3 52 93 90
4 94 12 10 95
3 10 92 95
4 52 50 96 97
3 97 93 52
3 98 12 94
3 50 99 96
4 100 14 12 101
3 12 98 101
4 50 48 102 103
3 103 99 50
3 104 14 100
3 48 105 102
4 106 16 14 107
3 14 104 107
4 46 108 105 48
3 46 109 108
3 110 16 106
3 46 111 109
4 18 16 110 112
3 112 113 18
4 44 114 111 46
3 44 115 114
3 116 18 113
3 44 117 115
4 20 18 116 118
3 118 119 20
4 42 120 117 44
3 42 121 120
3 122 20 119
3 42 123 121
4 22 20 122 124
3 124 125 22
4 40 126 123 42
3 40 127 126
3 128 22 125
3 40 129 127
4 24 22 128 130
3 130 131 24
4 38 132 129 40
3 38 133 132
3 134 24 131
3 38 135 133
4 26 24 134 136
3 136 137 26
4 36 138 135 38
3 36 139 138
3 140 26 137
3 36 141 139
4 28 26 140 142
3 142 143 28
4 34 144 141 36
3 34 145 144
3 146 28 143
3 34 147 145
4 30 28 146 148
3 148 149 30
4 32 150 147 34
4 32 30 149 150
4 0 3 151 64
4 61 60 64 151
3 3 2 151
3 2 61 151
3 2 5 61
3 5 59 61
3 5 7 59
3 7 57 59
3 7 9 57
3 9 55 57
3 9 11 55
3 11 53 55
3 11 13 53
3 13 51 53
3 13 15 51
3 15 49 51
3 15 17 49
3 17 47 49
3 17 19 47
3 19 45 47
3 19 21 45
3 21 43 45
3 21 23 43
3 23 41 43
3 23 25 41
3 25 39 41
3 25 27 39
3 27 37 39
3 27 29 37
3 29 35 37
3 29 31 35
3 31 33 35
4 152 70 68 63
4 62 153 152 63
4 154 74 71 70
3 154 77 74
3 70 152 154
4 155 80 76 154
3 155 83 80
3 76 77 154
4 156 86 82 155
3 156 89 86
3 82 83 155
4 156 95 92 88
3 156 157 95
3 88 89 156
4 157 158 101 98
4 94 95 157 98
4 158 159 107 104
3 104 100 158
3 100 101 158
4 106 107 159 160
4 161 110 106 160
3 161 112 110
4 162 113 112 161
3 162 116 113
3 162 118 116
4 163 119 118 162
3 163 122 119
3 163 124 122
4 164 128 125 124
3 124 163 164
3 164 130 128
4 164 165 134 131
3 131 130 164
3 165 136 134
4 165 142 140 137
3 137 136 165
3 165 166 142
4 166 146 143 142
4 166 167 148 146
4 167 150 149 148
3 167 168 150
4 169 145 147 150
3 169 144 145
3 150 168 169
4 170 138 139 141
4 144 169 170 141
4 171 133 135 170
3 171 132 133
3 135 138 170
4 172 127 129 171
3 172 126 127
3 129 132 171
4 172 121 123 126
4 172 173 120 121
4 173 174 114 115
3 115 117 173
3 117 120 173
4 174 175 108 109
3 109 111 174
3 111 114 174
4 105 108 175 176
4 177 102 105 176
3 177 103 102
4 178 99 103 177
3 178 96 99
3 178 97 96
4 179 93 97 178
3 179 90 93
3 179 91 90
4 180 85 84 87
4 91 179 180 87
4 180 181 78 81
3 81 85 180
3 181 79 78
4 181 72 75 79
4 181 182 73 72
4 62 65 183 153
3 65 67 183
4 182 67 66 69
3 69 73 182
3 182 183 67
3 153 183 152
3 152 183 182
3 152 182 154
3 154 182 181
3 154 181 155
3 155 181 180
3 155 180 156
3 156 180 179
3 156 179 157
3 157 179 178
3 157 178 158
3 158 178 177
3 158 177 159
3 159 177 176
3 159 176 160
3 160 176 175
3 160 175 161
3 161 175 174
3 161 174 162
3 162 174 173
3 162 173 163
3 163 173 172
3 163 172 164
3 164 172 171
3 164 171 165
3 165 171 170
3 165 170 166
3 166 170 169
3 166 169 167
3 167 169 168
