# This file uses centimeters as units for non-parametric coordinates.

mtllib 2.mtl
g default
v -0.114565 5.021152 3.946007
v 0.114565 5.021152 3.946007
v -0.114565 5.328378 3.946007
v 0.114565 5.328378 3.946007
v 0.114565 5.021152 0.000000
v -0.114565 5.021152 0.000000
v -0.114565 5.328378 0.000000
v 0.114565 5.328378 0.000000
v 0.114565 5.021152 3.025437
v -0.114565 5.021152 3.025437
v -0.114565 5.328378 3.025437
v 0.114565 5.328378 3.025437
v 0.114565 5.021152 2.871574
v -0.114565 5.021152 2.871574
v -0.114565 5.328378 2.871574
v 0.114565 5.328378 2.871574
v 0.114565 1.807127 2.871574
v -0.114565 1.807127 2.871574
v 0.114565 1.807127 3.025437
v -0.114565 1.807127 3.025437
v 0.114565 1.938897 2.871574
v -0.114565 1.938897 2.871574
v -0.114565 1.938897 3.025437
v 0.114565 1.938897 3.025437
v 0.114565 1.901072 2.871574
v -0.114565 1.901072 2.871574
v 0.114565 1.844954 2.871574
v -0.114565 1.844954 2.871574
v 0.114565 1.901072 2.224793
v -0.114565 1.901072 2.224793
v 0.114565 1.844954 2.224793
v -0.114565 1.844954 2.224793
v -0.114565 5.021152 -3.946007
v 0.114565 5.021152 -3.946007
v 0.114565 5.328378 -3.946007
v -0.114565 5.328378 -3.946007
v 0.114565 5.021152 -2.871574
v -0.114565 5.021152 -2.871574
v -0.114565 5.328378 -2.871574
v 0.114565 5.328378 -2.871574
v -0.114565 5.021152 -3.025437
v 0.114565 5.021152 -3.025437
v -0.114565 5.328378 -3.025437
v 0.114565 5.328378 -3.025437
v -0.114565 1.807127 -2.871574
v 0.114565 1.807127 -2.871574
v 0.114565 1.807127 -3.025437
v -0.114565 1.807127 -3.025437
v 0.114565 1.938897 -2.871574
v -0.114565 1.938897 -2.871574
v 0.114565 1.938897 -3.025437
v -0.114565 1.938897 -3.025437
v -0.114565 1.901072 -2.362930
v 0.114565 1.901072 -2.362930
v 0.114565 1.844954 -2.362930
v -0.114565 1.844954 -2.362930
v 0.114565 1.901072 -2.871574
v -0.114565 1.901072 -2.871574
v 0.114565 1.844954 -2.871574
v -0.114565 1.844954 -2.871574
v 0.114565 4.966728 2.897218
v 0.114565 4.966728 2.999793
v 0.114565 1.993323 2.999793
v 0.114565 1.993323 2.897218
v 0.114565 4.966728 -2.897218
v 0.114565 1.993323 -2.897218
v 0.114565 1.993323 -2.999793
v 0.114565 4.966728 -2.999793
v 0.066607 4.966728 2.897218
v 0.066607 4.966728 2.999793
v 0.066607 1.993323 2.999793
v 0.066607 1.993323 2.897218
v 0.066607 4.966728 -2.897218
v 0.066607 1.993323 -2.897218
v 0.066607 1.993323 -2.999793
v 0.066607 4.966728 -2.999793
vt 0.658321 0.089944
vt 0.662202 0.089944
vt 0.662202 0.089944
vt 0.658321 0.089944
vt 0.662202 0.089944
vt 0.658321 0.089944
vt 0.662202 0.089944
vt 0.658321 0.089944
vt 0.044473 0.999002
vt 0.044473 0.911927
vt 0.076156 0.911927
vt 0.076156 0.999002
vt 0.012790 0.999002
vt 0.012790 0.911927
vt 0.077854 0.911927
vt 0.077854 0.999002
vt 0.011093 0.999002
vt 0.011093 0.911927
vt 0.076156 0.038345
vt 0.077854 0.038345
vt 0.088011 0.911927
vt 0.088011 0.999002
vt 0.000936 0.999002
vt 0.000936 0.911927
vt 0.011093 0.038345
vt 0.012790 0.038345
vt 0.076156 0.000998
vt 0.077854 0.000998
vt 0.011093 0.000998
vt 0.012790 0.000998
vt 0.076156 0.027624
vt 0.076156 0.011719
vt 0.069020 0.027624
vt 0.069020 0.011719
vt 0.104323 0.999002
vt 0.104323 0.911927
vt 0.136006 0.911927
vt 0.136006 0.999002
vt 0.102625 0.999002
vt 0.102625 0.911927
vt 0.167689 0.999002
vt 0.167689 0.911927
vt 0.092468 0.911927
vt 0.092468 0.999002
vt 0.102908 0.896502
vt 0.104040 0.896502
vt 0.169386 0.999002
vt 0.169386 0.911927
vt 0.102625 0.038345
vt 0.102908 0.053770
vt 0.104323 0.038345
vt 0.104040 0.053770
vt 0.167972 0.896502
vt 0.169103 0.896502
vt 0.179543 0.911927
vt 0.179543 0.999002
vt 0.167689 0.038345
vt 0.167972 0.053770
vt 0.169386 0.038345
vt 0.169103 0.053770
vt 0.102625 0.000998
vt 0.104323 0.000998
vt 0.167689 0.000998
vt 0.169386 0.000998
vt 0.550350 0.843730
vt 0.549218 0.843730
vt 0.549218 0.000998
vt 0.550350 0.000998
vt 0.716133 0.127291
vt 0.716133 0.089944
vt 0.716133 0.100665
vt 0.716133 0.116570
vt 0.685067 0.105849
vt 0.685067 0.089944
vt 0.692204 0.089944
vt 0.692204 0.105849
vt 0.554699 0.843730
vt 0.554699 0.000998
vt 0.555831 0.000998
vt 0.555831 0.843730
vt 0.681187 0.105849
vt 0.675575 0.105849
vt 0.675575 0.089944
vt 0.681187 0.089944
vt 0.666082 0.089944
vt 0.671694 0.089944
vt 0.671694 0.105849
vt 0.666082 0.105849
vt 0.778216 0.088073
vt 0.778216 0.000998
vt 0.809899 0.000998
vt 0.809899 0.088073
vt 0.746533 0.088073
vt 0.746533 0.000998
vt 0.814132 0.012853
vt 0.901208 0.012853
vt 0.901208 0.044536
vt 0.814132 0.044536
vt 0.814132 0.011155
vt 0.901208 0.011155
vt 0.814132 0.076219
vt 0.901208 0.076219
vt 0.814132 0.000998
vt 0.901208 0.000998
vt 0.814132 0.077916
vt 0.901208 0.077916
vt 0.814132 0.088073
vt 0.901208 0.088073
vt 0.905482 0.088073
vt 0.905482 0.000998
vt 0.915639 0.000998
vt 0.915639 0.088073
vt 0.920098 0.088073
vt 0.920098 0.000998
vt 0.921796 0.000998
vt 0.921796 0.088073
vt 0.894974 0.177019
vt 0.894974 0.089944
vt 0.902110 0.089944
vt 0.902110 0.177019
vt 0.891093 0.089944
vt 0.891093 0.177019
vt 0.883957 0.177019
vt 0.883957 0.089944
vt 0.789121 0.177019
vt 0.778965 0.177019
vt 0.778965 0.089944
vt 0.789121 0.089944
vt 0.775084 0.177019
vt 0.773386 0.177019
vt 0.773386 0.089944
vt 0.775084 0.089944
vt 0.735119 0.177019
vt 0.729506 0.177019
vt 0.729506 0.089944
vt 0.735119 0.089944
vt 0.720014 0.089944
vt 0.725626 0.089944
vt 0.725626 0.177019
vt 0.720014 0.177019
vt 0.711121 0.089944
vt 0.712253 0.089944
vt 0.712253 0.108169
vt 0.711121 0.108169
vt 0.706109 0.089944
vt 0.707241 0.089944
vt 0.707241 0.108169
vt 0.706109 0.108169
vt 0.701096 0.089944
vt 0.702228 0.089944
vt 0.702228 0.108169
vt 0.701096 0.108169
vt 0.696084 0.089944
vt 0.697216 0.089944
vt 0.697216 0.108169
vt 0.696084 0.108169
vt 0.655184 0.088073
vt 0.655184 0.000998
vt 0.742258 0.000998
vt 0.742258 0.088073
vt 0.366518 0.000998
vt 0.453593 0.000998
vt 0.453593 0.874580
vt 0.366518 0.874580
vt 0.453593 0.885301
vt 0.366518 0.885301
vt 0.270893 0.911927
vt 0.183818 0.911927
vt 0.183818 0.038345
vt 0.270893 0.038345
vt 0.183818 0.000998
vt 0.270893 0.000998
vt 0.920592 0.177019
vt 0.920592 0.089944
vt 0.936497 0.089944
vt 0.936497 0.177019
vt 0.916712 0.089944
vt 0.916712 0.177019
vt 0.905991 0.177019
vt 0.905991 0.089944
vt 0.880077 0.177019
vt 0.793002 0.177019
vt 0.793002 0.089944
vt 0.880077 0.089944
vt 0.457868 0.885301
vt 0.457868 0.011719
vt 0.544943 0.011719
vt 0.544943 0.885301
vt 0.457868 0.000998
vt 0.544943 0.000998
vt 0.362243 0.000998
vt 0.362243 0.874580
vt 0.275168 0.874580
vt 0.275168 0.000998
vt 0.362243 0.911927
vt 0.275168 0.911927
vt 0.769506 0.177019
vt 0.753600 0.177019
vt 0.753600 0.089944
vt 0.769506 0.089944
vt 0.738999 0.089944
vt 0.749720 0.089944
vt 0.749720 0.177019
vt 0.738999 0.177019
vt 0.578405 0.000998
vt 0.578405 0.843730
vt 0.560180 0.843730
vt 0.560180 0.000998
vt 0.602156 0.000998
vt 0.602156 0.843730
vt 0.583931 0.843730
vt 0.583931 0.000998
vt 0.625907 0.000998
vt 0.625907 0.843730
vt 0.607682 0.843730
vt 0.607682 0.000998
vt 0.649658 0.000998
vt 0.649658 0.843730
vt 0.631433 0.843730
vt 0.631433 0.000998
vn 0.000000 0.000000 1.000000
vn 0.000000 0.000000 1.000000
vn 0.000000 0.000000 1.000000
vn 0.000000 0.000000 1.000000
vn 0.000000 -1.000000 0.000000
vn 0.000000 -1.000000 0.000000
vn 0.000000 -1.000000 0.000000
vn 0.000000 -1.000000 0.000000
vn -1.000000 0.000000 0.000000
vn -1.000000 0.000000 0.000000
vn -1.000000 0.000000 0.000000
vn -1.000000 0.000000 0.000000
vn 0.000000 1.000000 0.000000
vn 0.000000 1.000000 0.000000
vn 0.000000 1.000000 0.000000
vn 0.000000 1.000000 0.000000
vn 1.000000 0.000000 0.000000
vn 1.000000 0.000000 0.000000
vn 1.000000 0.000000 0.000000
vn 1.000000 0.000000 0.000000
vn 0.000000 -1.000000 0.000000
vn 0.000000 -1.000000 0.000000
vn 0.000000 -1.000000 0.000000
vn 0.000000 -1.000000 0.000000
vn -1.000000 0.000000 0.000000
vn -1.000000 0.000000 0.000000
vn -1.000000 0.000000 0.000000
vn -1.000000 0.000000 0.000000
vn 0.000000 1.000000 0.000000
vn 0.000000 1.000000 0.000000
vn 0.000000 1.000000 0.000000
vn 0.000000 1.000000 0.000000
vn 1.000000 0.000000 0.000000
vn 1.000000 0.000000 0.000000
vn 1.000000 0.000000 0.000000
vn 1.000000 0.000000 0.000000
vn 0.000000 -1.000000 0.000000
vn 0.000000 -1.000000 0.000000
vn 0.000000 -1.000000 0.000000
vn 0.000000 -1.000000 0.000000
vn 0.000000 0.000000 -1.000000
vn 0.000000 0.000000 -1.000000
vn 0.000000 0.000000 -1.000000
vn 0.000000 0.000000 -1.000000
vn 1.000000 0.000000 0.000000
vn 1.000000 0.000000 0.000000
vn 1.000000 0.000000 0.000000
vn 1.000000 0.000000 0.000000
vn 0.000000 -0.000000 1.000000
vn 0.000000 -0.000000 1.000000
vn 0.000000 0.000000 1.000000
vn 0.000000 0.000000 1.000000
vn -1.000000 0.000000 0.000000
vn -1.000000 0.000000 0.000000
vn 0.000000 0.000000 -1.000000
vn 0.000000 0.000000 -1.000000
vn 0.000000 0.000000 -1.000000
vn 0.000000 0.000000 -1.000000
vn -1.000000 0.000000 0.000000
vn -1.000000 0.000000 0.000000
vn 0.000000 0.000002 1.000000
vn 0.000000 0.000002 1.000000
vn 1.000000 0.000000 0.000000
vn 1.000000 0.000000 0.000000
vn 1.000000 0.000000 0.000000
vn 1.000000 0.000000 0.000000
vn 0.000000 0.000000 -1.000000
vn 0.000000 0.000000 -1.000000
vn 1.000000 0.000000 0.000000
vn 1.000000 0.000000 0.000000
vn 0.000000 0.000000 -1.000000
vn 0.000000 0.000000 -1.000000
vn 0.000000 0.000000 -1.000000
vn 0.000000 0.000000 -1.000000
vn -0.000000 0.000000 0.000000
vn -0.000000 0.000000 0.000000
vn 0.000000 1.000000 0.000000
vn 0.000000 1.000000 0.000000
vn 0.000000 1.000000 0.000000
vn 0.000000 1.000000 0.000000
vn 1.000000 0.000000 0.000000
vn 1.000000 0.000000 0.000000
vn 0.000000 -1.000000 0.000000
vn 0.000000 -1.000000 0.000000
vn 0.000000 -1.000000 0.000000
vn 0.000000 -1.000000 0.000000
vn -1.000000 0.000000 0.000000
vn -1.000000 0.000000 0.000000
vn -1.000000 0.000000 0.000000
vn -1.000000 0.000000 0.000000
vn 0.000000 0.000000 -1.000000
vn 0.000000 0.000000 -1.000000
vn 0.000000 0.000000 -1.000000
vn 0.000000 0.000000 -1.000000
vn 0.000000 -1.000000 0.000000
vn 0.000000 -1.000000 0.000000
vn 0.000000 -1.000000 0.000000
vn 0.000000 -1.000000 0.000000
vn -1.000000 0.000000 0.000000
vn -1.000000 0.000000 0.000000
vn -1.000000 0.000000 0.000000
vn -1.000000 0.000000 0.000000
vn 0.000000 1.000000 0.000000
vn 0.000000 1.000000 0.000000
vn 0.000000 1.000000 0.000000
vn 0.000000 1.000000 0.000000
vn 1.000000 0.000000 0.000000
vn 1.000000 0.000000 0.000000
vn 1.000000 0.000000 0.000000
vn 1.000000 0.000000 0.000000
vn 0.000000 -1.000000 0.000000
vn 0.000000 -1.000000 0.000000
vn 0.000000 -1.000000 0.000000
vn 0.000000 -1.000000 0.000000
vn -1.000000 0.000000 0.000000
vn -1.000000 0.000000 0.000000
vn -1.000000 0.000000 0.000000
vn -1.000000 0.000000 0.000000
vn 0.000000 1.000000 0.000000
vn 0.000000 1.000000 0.000000
vn 0.000000 1.000000 0.000000
vn 0.000000 1.000000 0.000000
vn 1.000000 0.000000 0.000000
vn 1.000000 0.000000 0.000000
vn 1.000000 0.000000 0.000000
vn 1.000000 0.000000 0.000000
vn 0.000000 -1.000000 0.000000
vn 0.000000 -1.000000 0.000000
vn 0.000000 -1.000000 0.000000
vn 0.000000 -1.000000 0.000000
vn 0.000000 0.000000 1.000000
vn 0.000000 0.000000 1.000000
vn 0.000000 0.000000 1.000000
vn 0.000000 0.000000 1.000000
vn 1.000000 0.000000 0.000000
vn 1.000000 0.000000 0.000000
vn 1.000000 0.000000 0.000000
vn 1.000000 0.000000 0.000000
vn 0.000000 -0.000000 -1.000000
vn 0.000000 0.000000 -1.000000
vn 0.000000 0.000000 -1.000000
vn 0.000000 -0.000000 -1.000000
vn -1.000000 0.000000 0.000000
vn -1.000000 0.000000 0.000000
vn 0.000000 0.000000 1.000000
vn 0.000000 0.000000 1.000000
vn 0.000000 0.000000 1.000000
vn 0.000000 0.000000 1.000000
vn -1.000000 0.000000 0.000000
vn -1.000000 0.000000 0.000000
vn 0.000000 0.000002 -1.000000
vn 0.000000 0.000002 -1.000000
vn 1.000000 0.000000 0.000000
vn 1.000000 0.000000 0.000000
vn 1.000000 0.000000 0.000000
vn 1.000000 0.000000 0.000000
vn 0.000000 0.000000 1.000000
vn 0.000000 0.000000 1.000000
vn 1.000000 0.000000 0.000000
vn 1.000000 0.000000 0.000000
vn 0.000000 0.000000 1.000000
vn 0.000000 0.000000 1.000000
vn 0.000000 0.000000 1.000000
vn 0.000000 0.000000 1.000000
vn 0.000000 0.000000 0.000000
vn 0.000000 0.000000 0.000000
vn 0.000000 1.000000 0.000000
vn 0.000000 1.000000 0.000000
vn 0.000000 1.000000 0.000000
vn 0.000000 1.000000 0.000000
vn 1.000000 0.000000 0.000000
vn 1.000000 0.000000 0.000000
vn 0.000000 -1.000000 0.000000
vn 0.000000 -1.000000 0.000000
vn 0.000000 -1.000000 0.000000
vn 0.000000 -1.000000 0.000000
vn -1.000000 0.000000 0.000000
vn -1.000000 0.000000 0.000000
vn -1.000000 0.000000 0.000000
vn -1.000000 0.000000 0.000000
vn 1.000000 0.000000 0.000000
vn 1.000000 0.000000 0.000000
vn 1.000000 0.000000 0.000000
vn 1.000000 0.000000 0.000000
vn 1.000000 0.000000 0.000000
vn 1.000000 0.000000 0.000000
vn 1.000000 0.000000 0.000000
vn 1.000000 0.000000 0.000000
vn 0.000000 -1.000000 0.000000
vn 0.000000 -1.000000 0.000000
vn 0.000000 -1.000000 0.000000
vn 0.000000 -1.000000 0.000000
vn 0.000000 0.000000 -1.000000
vn 0.000000 0.000000 -1.000000
vn 0.000000 0.000000 -1.000000
vn 0.000000 0.000000 -1.000000
vn 0.000000 1.000000 0.000000
vn 0.000000 1.000000 0.000000
vn 0.000000 1.000000 0.000000
vn 0.000000 1.000000 0.000000
vn 0.000000 0.000000 1.000000
vn 0.000000 0.000000 1.000000
vn 0.000000 0.000000 1.000000
vn 0.000000 0.000000 1.000000
vn 0.000000 0.000000 -1.000000
vn 0.000000 0.000000 -1.000000
vn 0.000000 0.000000 -1.000000
vn 0.000000 0.000000 -1.000000
vn 0.000000 1.000000 0.000000
vn 0.000000 1.000000 0.000000
vn 0.000000 1.000000 0.000000
vn 0.000000 1.000000 0.000000
vn 0.000000 0.000000 1.000000
vn 0.000000 0.000000 1.000000
vn 0.000000 0.000000 1.000000
vn 0.000000 0.000000 1.000000
vn 0.000000 -1.000000 0.000000
vn 0.000000 -1.000000 0.000000
vn 0.000000 -1.000000 0.000000
vn 0.000000 -1.000000 0.000000
s off
g pCube1
usemtl initialShadingGroup
f 1/157/1 2/158/2 4/159/3 3/160/4
f 6/89/5 5/90/6 13/91/7 14/92/8
s 1
f 7/9/9 6/10/10 14/11/11 15/12/12
s 2
f 15/95/13 16/96/14 8/97/15 7/98/16
s 3
f 16/35/17 13/36/18 5/37/19 8/38/20
s off
f 10/109/21 9/110/22 2/111/23 1/112/24
s 1
f 11/16/25 10/15/26 1/21/27 3/22/28
s 2
f 3/103/29 4/104/30 12/100/31 11/99/32
s 3
f 2/43/33 9/40/34 12/39/35 4/44/36
s off
f 18/113/37 17/114/38 19/115/39 20/116/40
s 1
f 15/12/12 14/11/11 10/15/26 11/16/25
s 2
f 11/99/32 12/100/31 16/96/14 15/95/13
s 3
f 12/39/35 9/40/34 13/36/18 16/35/17
s 4
f 14/161/41 13/162/42 21/163/43 22/164/44
s off
f 69/65/45 70/66/46 71/67/47 72/68/48
s 5
f 9/167/49 10/168/50 23/169/51 24/170/52
s 1
f 10/15/26 14/11/11 22/19/53 23/20/54
s off
f 30/173/55 29/174/56 31/175/57 32/176/58
s 1
f 23/20/54 22/19/53 18/27/59 20/28/60
s 5
f 24/170/52 23/169/51 20/171/61 19/172/62
s 3
f 21/51/63 24/49/64 19/61/65 17/62/66
s 4
f 22/164/44 21/163/43 25/165/67 26/166/68
s 3
f 21/69/63 17/70/66 27/71/69 25/72/70
s off
f 17/177/71 18/178/72 28/179/73 27/180/74
s 1
f 18/27/59 22/19/53 26/31/75 28/32/76
s off
f 26/117/77 25/118/78 29/119/79 30/120/80
s 3
f 25/73/70 27/74/69 31/75/81 29/76/82
s off
f 27/121/83 28/122/84 32/123/85 31/124/86
f 28/32/87 26/31/88 30/33/89 32/34/90
f 33/181/91 36/182/92 35/183/93 34/184/94
f 6/89/95 38/93/96 37/94/97 5/90/98
s 7
f 7/9/99 39/13/100 38/14/101 6/10/102
s 8
f 39/101/103 7/98/104 8/97/105 40/102/106
s 9
f 40/41/107 8/38/108 5/37/109 37/42/110
s off
f 41/125/111 33/126/112 34/127/113 42/128/114
s 7
f 43/17/115 36/23/116 33/24/117 41/18/118
s 8
f 36/107/119 43/105/120 44/106/121 35/108/122
s 9
f 34/55/123 35/56/124 44/47/125 42/48/126
s off
f 45/129/127 48/130/128 47/131/129 46/132/130
s 7
f 39/13/100 43/17/115 41/18/118 38/14/101
s 8
f 43/105/120 39/101/103 40/102/106 44/106/121
s 9
f 44/47/125 40/41/107 37/42/110 42/48/126
s 10
f 38/185/131 50/186/132 49/187/133 37/188/134
s off
f 73/77/135 74/78/136 75/79/137 76/80/138
s 11
f 42/191/139 51/192/140 52/193/141 41/194/142
s 7
f 41/18/118 52/25/143 50/26/144 38/14/101
s off
f 53/197/145 56/198/146 55/199/147 54/200/148
s 7
f 52/25/143 48/29/149 45/30/150 50/26/144
s 11
f 51/192/140 47/195/151 48/196/152 52/193/141
s 9
f 49/57/153 46/63/154 47/64/155 51/59/156
s 10
f 50/186/132 58/189/157 57/190/158 49/187/133
s 9
f 49/3/153 57/5/159 59/7/160 46/2/154
s off
f 46/201/161 59/202/162 60/203/163 45/204/164
s 7
f 45/1/150 60/8/165 58/6/166 50/4/144
s off
f 58/133/167 53/134/168 54/135/169 57/136/170
s 9
f 57/81/159 54/82/171 55/83/172 59/84/160
s off
f 59/137/173 55/138/174 56/139/175 60/140/176
f 60/85/177 56/86/178 53/87/179 58/88/180
s 3
f 13/36/18 9/40/34 62/45/181 61/46/182
f 9/40/34 24/49/64 63/50/183 62/45/181
f 24/49/64 21/51/63 64/52/184 63/50/183
f 21/51/63 13/36/18 61/46/182 64/52/184
s 9
f 37/42/110 49/57/153 66/58/185 65/53/186
f 49/57/153 51/59/156 67/60/187 66/58/185
f 51/59/156 42/48/126 68/54/188 67/60/187
f 42/48/126 37/42/110 65/53/186 68/54/188
s off
f 61/141/189 62/142/190 70/143/191 69/144/192
f 62/205/193 63/206/194 71/207/195 70/208/196
f 63/145/197 64/146/198 72/147/199 71/148/200
f 64/209/201 61/210/202 69/211/203 72/212/204
f 65/213/205 66/214/206 74/215/207 73/216/208
f 66/149/209 67/150/210 75/151/211 74/152/212
f 67/217/213 68/218/214 76/219/215 75/220/216
f 68/153/217 65/154/218 73/155/219 76/156/220
